<svg width="89" height="36" viewBox="0 0 89 36" fill="none" xmlns="http://www.w3.org/2000/svg">
<mask id="path-1-outside-1_412_967" maskUnits="userSpaceOnUse" x="0" y="6" width="83" height="29" fill="black">
<rect fill="white" y="6" width="83" height="29"/>
<path d="M4.81499 9.71955L8.49178 6.9208V14H6.74942V10.4192L4.81499 11.8049L2.8394 10.4192V14H1.09704V6.9208L4.81499 9.71955ZM18.3809 7.07172V14H16.6385V7.07172H18.3809ZM28.3645 11.1052C27.1709 10.9406 26.3752 10.1449 26.3752 9.00615C26.3752 7.79884 27.4727 6.9208 28.4331 6.9208C29.3249 6.9208 30.0108 7.30494 30.491 8.01835L29.1191 8.99243C28.9407 8.77292 28.7212 8.63572 28.4743 8.63572C28.2136 8.63572 28.0627 8.78664 28.0627 8.99243C28.0627 9.19822 28.2273 9.41773 28.7898 9.44517C30.0108 9.51376 30.9712 10.3232 30.9712 11.7363C30.9712 13.1357 29.8599 14.096 28.5154 14.096C27.706 14.096 26.8142 13.8216 26.1831 12.9436L27.5825 11.8598C27.8843 12.2714 28.1724 12.4086 28.4743 12.4086C28.831 12.4086 29.1328 12.1479 29.1328 11.8323C29.1328 11.3796 28.8721 11.1738 28.3645 11.1052ZM40.6101 11.1052C39.4165 10.9406 38.6208 10.1449 38.6208 9.00615C38.6208 7.79884 39.7184 6.9208 40.6787 6.9208C41.5705 6.9208 42.2564 7.30494 42.7366 8.01835L41.3647 8.99243C41.1863 8.77292 40.9668 8.63572 40.7199 8.63572C40.4592 8.63572 40.3083 8.78664 40.3083 8.99243C40.3083 9.19822 40.4729 9.41773 41.0354 9.44517C42.2564 9.51376 43.2168 10.3232 43.2168 11.7363C43.2168 13.1357 42.1055 14.096 40.761 14.096C39.9516 14.096 39.0598 13.8216 38.4287 12.9436L39.8281 11.8598C40.1299 12.2714 40.4181 12.4086 40.7199 12.4086C41.0766 12.4086 41.3784 12.1479 41.3784 11.8323C41.3784 11.3796 41.1177 11.1738 40.6101 11.1052ZM52.7597 7.07172V14H51.0173V7.07172H52.7597ZM64.1702 14.096C62.222 14.096 60.6168 12.4909 60.6168 10.529C60.6168 8.52597 62.222 6.9208 64.1702 6.9208C66.1869 6.9208 67.7921 8.52597 67.7921 10.529C67.7921 12.4909 66.1869 14.096 64.1702 14.096ZM64.1702 8.63572C63.2372 8.63572 62.3729 9.45889 62.3729 10.529C62.3729 11.5305 63.2372 12.4086 64.1702 12.4086C65.1854 12.4086 65.9537 11.5305 65.9537 10.529C65.9537 9.45889 65.1717 8.63572 64.1702 8.63572ZM80.3068 10.625V7.07172H82.0492V14.096L77.3983 10.4467V14H75.6559V6.94824L80.3068 10.625ZM21.2419 31.3933L22.7236 32.3948C22.0788 33.3963 21.0498 34.096 19.623 34.096C17.6063 34.096 16.0148 32.4771 16.0148 30.5564C16.0148 28.5534 17.6063 26.9208 19.623 26.9208C20.9126 26.9208 22.0239 27.5931 22.655 28.6357L21.2693 29.6098C20.748 28.8964 20.2815 28.6494 19.623 28.6494C18.5117 28.6494 17.7846 29.5275 17.7846 30.5564C17.7846 31.4894 18.5392 32.4086 19.623 32.4086C20.4325 32.4086 20.9126 31.9147 21.2419 31.3933ZM33.6633 34.096C31.7151 34.096 30.11 32.4909 30.11 30.529C30.11 28.526 31.7151 26.9208 33.6633 26.9208C35.68 26.9208 37.2852 28.526 37.2852 30.529C37.2852 32.4909 35.68 34.096 33.6633 34.096ZM33.6633 28.6357C32.7304 28.6357 31.8661 29.4589 31.8661 30.529C31.8661 31.5305 32.7304 32.4086 33.6633 32.4086C34.6785 32.4086 35.4468 31.5305 35.4468 30.529C35.4468 29.4589 34.6648 28.6357 33.6633 28.6357ZM46.8915 27.0717V34H45.1491V27.0717H46.8915ZM59.6876 30.625V27.0717H61.4299V34.096L56.779 30.4467V34H55.0367V26.9482L59.6876 30.625ZM71.4117 31.1052C70.2181 30.9406 69.4224 30.1449 69.4224 29.0061C69.4224 27.7988 70.52 26.9208 71.4803 26.9208C72.3721 26.9208 73.0581 27.3049 73.5382 28.0184L72.1663 28.9924C71.9879 28.7729 71.7684 28.6357 71.5215 28.6357C71.2608 28.6357 71.1099 28.7866 71.1099 28.9924C71.1099 29.1982 71.2745 29.4177 71.837 29.4452C73.0581 29.5138 74.0184 30.3232 74.0184 31.7363C74.0184 33.1357 72.9071 34.096 71.5626 34.096C70.7532 34.096 69.8614 33.8216 69.2303 32.9436L70.6297 31.8598C70.9315 32.2714 71.2197 32.4086 71.5215 32.4086C71.8782 32.4086 72.18 32.1479 72.18 31.8323C72.18 31.3796 71.9193 31.1738 71.4117 31.1052Z"/>
</mask>
<path d="M4.81499 9.71955L8.49178 6.9208V14H6.74942V10.4192L4.81499 11.8049L2.8394 10.4192V14H1.09704V6.9208L4.81499 9.71955ZM18.3809 7.07172V14H16.6385V7.07172H18.3809ZM28.3645 11.1052C27.1709 10.9406 26.3752 10.1449 26.3752 9.00615C26.3752 7.79884 27.4727 6.9208 28.4331 6.9208C29.3249 6.9208 30.0108 7.30494 30.491 8.01835L29.1191 8.99243C28.9407 8.77292 28.7212 8.63572 28.4743 8.63572C28.2136 8.63572 28.0627 8.78664 28.0627 8.99243C28.0627 9.19822 28.2273 9.41773 28.7898 9.44517C30.0108 9.51376 30.9712 10.3232 30.9712 11.7363C30.9712 13.1357 29.8599 14.096 28.5154 14.096C27.706 14.096 26.8142 13.8216 26.1831 12.9436L27.5825 11.8598C27.8843 12.2714 28.1724 12.4086 28.4743 12.4086C28.831 12.4086 29.1328 12.1479 29.1328 11.8323C29.1328 11.3796 28.8721 11.1738 28.3645 11.1052ZM40.6101 11.1052C39.4165 10.9406 38.6208 10.1449 38.6208 9.00615C38.6208 7.79884 39.7184 6.9208 40.6787 6.9208C41.5705 6.9208 42.2564 7.30494 42.7366 8.01835L41.3647 8.99243C41.1863 8.77292 40.9668 8.63572 40.7199 8.63572C40.4592 8.63572 40.3083 8.78664 40.3083 8.99243C40.3083 9.19822 40.4729 9.41773 41.0354 9.44517C42.2564 9.51376 43.2168 10.3232 43.2168 11.7363C43.2168 13.1357 42.1055 14.096 40.761 14.096C39.9516 14.096 39.0598 13.8216 38.4287 12.9436L39.8281 11.8598C40.1299 12.2714 40.4181 12.4086 40.7199 12.4086C41.0766 12.4086 41.3784 12.1479 41.3784 11.8323C41.3784 11.3796 41.1177 11.1738 40.6101 11.1052ZM52.7597 7.07172V14H51.0173V7.07172H52.7597ZM64.1702 14.096C62.222 14.096 60.6168 12.4909 60.6168 10.529C60.6168 8.52597 62.222 6.9208 64.1702 6.9208C66.1869 6.9208 67.7921 8.52597 67.7921 10.529C67.7921 12.4909 66.1869 14.096 64.1702 14.096ZM64.1702 8.63572C63.2372 8.63572 62.3729 9.45889 62.3729 10.529C62.3729 11.5305 63.2372 12.4086 64.1702 12.4086C65.1854 12.4086 65.9537 11.5305 65.9537 10.529C65.9537 9.45889 65.1717 8.63572 64.1702 8.63572ZM80.3068 10.625V7.07172H82.0492V14.096L77.3983 10.4467V14H75.6559V6.94824L80.3068 10.625ZM21.2419 31.3933L22.7236 32.3948C22.0788 33.3963 21.0498 34.096 19.623 34.096C17.6063 34.096 16.0148 32.4771 16.0148 30.5564C16.0148 28.5534 17.6063 26.9208 19.623 26.9208C20.9126 26.9208 22.0239 27.5931 22.655 28.6357L21.2693 29.6098C20.748 28.8964 20.2815 28.6494 19.623 28.6494C18.5117 28.6494 17.7846 29.5275 17.7846 30.5564C17.7846 31.4894 18.5392 32.4086 19.623 32.4086C20.4325 32.4086 20.9126 31.9147 21.2419 31.3933ZM33.6633 34.096C31.7151 34.096 30.11 32.4909 30.11 30.529C30.11 28.526 31.7151 26.9208 33.6633 26.9208C35.68 26.9208 37.2852 28.526 37.2852 30.529C37.2852 32.4909 35.68 34.096 33.6633 34.096ZM33.6633 28.6357C32.7304 28.6357 31.8661 29.4589 31.8661 30.529C31.8661 31.5305 32.7304 32.4086 33.6633 32.4086C34.6785 32.4086 35.4468 31.5305 35.4468 30.529C35.4468 29.4589 34.6648 28.6357 33.6633 28.6357ZM46.8915 27.0717V34H45.1491V27.0717H46.8915ZM59.6876 30.625V27.0717H61.4299V34.096L56.779 30.4467V34H55.0367V26.9482L59.6876 30.625ZM71.4117 31.1052C70.2181 30.9406 69.4224 30.1449 69.4224 29.0061C69.4224 27.7988 70.52 26.9208 71.4803 26.9208C72.3721 26.9208 73.0581 27.3049 73.5382 28.0184L72.1663 28.9924C71.9879 28.7729 71.7684 28.6357 71.5215 28.6357C71.2608 28.6357 71.1099 28.7866 71.1099 28.9924C71.1099 29.1982 71.2745 29.4177 71.837 29.4452C73.0581 29.5138 74.0184 30.3232 74.0184 31.7363C74.0184 33.1357 72.9071 34.096 71.5626 34.096C70.7532 34.096 69.8614 33.8216 69.2303 32.9436L70.6297 31.8598C70.9315 32.2714 71.2197 32.4086 71.5215 32.4086C71.8782 32.4086 72.18 32.1479 72.18 31.8323C72.18 31.3796 71.9193 31.1738 71.4117 31.1052Z" fill="#FEF8ED"/>
<path d="M4.81499 9.71955L4.72477 9.8394L4.81549 9.90768L4.90584 9.83891L4.81499 9.71955ZM8.49178 6.9208H8.64178V6.61811L8.40093 6.80145L8.49178 6.9208ZM8.49178 14V14.15H8.64178V14H8.49178ZM6.74942 14H6.59942V14.15H6.74942V14ZM6.74942 10.4192H6.89942V10.1273L6.66207 10.2973L6.74942 10.4192ZM4.81499 11.8049L4.72885 11.9277L4.8159 11.9888L4.90234 11.9268L4.81499 11.8049ZM2.8394 10.4192L2.92553 10.2964L2.6894 10.1308V10.4192H2.8394ZM2.8394 14V14.15H2.9894V14H2.8394ZM1.09704 14H0.947035V14.15H1.09704V14ZM1.09704 6.9208L1.18725 6.80096L0.947035 6.62014V6.9208H1.09704ZM4.90584 9.83891L8.58263 7.04016L8.40093 6.80145L4.72413 9.6002L4.90584 9.83891ZM8.34178 6.9208V14H8.64178V6.9208H8.34178ZM8.49178 13.85H6.74942V14.15H8.49178V13.85ZM6.89942 14V10.4192H6.59942V14H6.89942ZM6.66207 10.2973L4.72764 11.683L4.90234 11.9268L6.83677 10.5412L6.66207 10.2973ZM4.90112 11.6821L2.92553 10.2964L2.75326 10.542L4.72885 11.9277L4.90112 11.6821ZM2.6894 10.4192V14H2.9894V10.4192H2.6894ZM2.8394 13.85H1.09704V14.15H2.8394V13.85ZM1.24704 14V6.9208H0.947035V14H1.24704ZM1.00682 7.04064L4.72477 9.8394L4.9052 9.59971L1.18725 6.80096L1.00682 7.04064ZM18.3809 7.07172H18.5309V6.92172H18.3809V7.07172ZM18.3809 14V14.15H18.5309V14H18.3809ZM16.6385 14H16.4885V14.15H16.6385V14ZM16.6385 7.07172V6.92172H16.4885V7.07172H16.6385ZM18.2309 7.07172V14H18.5309V7.07172H18.2309ZM18.3809 13.85H16.6385V14.15H18.3809V13.85ZM16.7885 14V7.07172H16.4885V14H16.7885ZM16.6385 7.22172H18.3809V6.92172H16.6385V7.22172ZM28.3645 11.1052L28.344 11.2538L28.3444 11.2539L28.3645 11.1052ZM30.491 8.01835L30.5779 8.14066L30.6971 8.05596L30.6154 7.9346L30.491 8.01835ZM29.1191 8.99243L29.0027 9.08702L29.0913 9.19611L29.2059 9.11474L29.1191 8.99243ZM28.7898 9.44517L28.7982 9.2954L28.7971 9.29535L28.7898 9.44517ZM26.1831 12.9436L26.0913 12.825L25.9769 12.9136L26.0613 13.0312L26.1831 12.9436ZM27.5825 11.8598L27.7035 11.7711L27.6124 11.6469L27.4907 11.7412L27.5825 11.8598ZM28.385 10.9566C27.8159 10.8781 27.3514 10.6507 27.0304 10.317C26.7104 9.98438 26.5252 9.5386 26.5252 9.00615H26.2252C26.2252 9.6124 26.4379 10.1338 26.8142 10.525C27.1894 10.9149 27.7195 11.1677 28.344 11.2538L28.385 10.9566ZM26.5252 9.00615C26.5252 8.45003 26.7777 7.96663 27.1467 7.62008C27.5174 7.27197 27.9963 7.0708 28.4331 7.0708V6.7708C27.9096 6.7708 27.3595 7.00866 26.9413 7.40139C26.5215 7.79569 26.2252 8.35496 26.2252 9.00615H26.5252ZM28.4331 7.0708C29.2736 7.0708 29.9135 7.42899 30.3666 8.10211L30.6154 7.9346C30.1082 7.1809 29.3761 6.7708 28.4331 6.7708V7.0708ZM30.4042 7.89604L29.0322 8.87012L29.2059 9.11474L30.5779 8.14066L30.4042 7.89604ZM29.2355 8.89784C29.0399 8.65715 28.7817 8.48572 28.4743 8.48572V8.78572C28.6608 8.78572 28.8415 8.88869 29.0027 9.08702L29.2355 8.89784ZM28.4743 8.48572C28.3153 8.48572 28.1738 8.53207 28.0702 8.62555C27.9655 8.72006 27.9127 8.85115 27.9127 8.99243H28.2127C28.2127 8.92791 28.2353 8.88065 28.2712 8.84826C28.3083 8.81484 28.3726 8.78572 28.4743 8.78572V8.48572ZM27.9127 8.99243C27.9127 9.13995 27.974 9.29164 28.125 9.40546C28.2699 9.5147 28.4857 9.58051 28.7825 9.59499L28.7971 9.29535C28.5315 9.28239 28.3836 9.22473 28.3056 9.1659C28.2337 9.11166 28.2127 9.05069 28.2127 8.99243H27.9127ZM28.7814 9.59493C29.3615 9.62752 29.8703 9.83536 30.233 10.1933C30.5943 10.5499 30.8212 11.0656 30.8212 11.7363H31.1212C31.1212 10.9939 30.8679 10.3984 30.4437 9.97978C30.021 9.56259 29.4392 9.33141 28.7982 9.2954L28.7814 9.59493ZM30.8212 11.7363C30.8212 13.0429 29.7874 13.946 28.5154 13.946V14.246C29.9324 14.246 31.1212 13.2285 31.1212 11.7363H30.8212ZM28.5154 13.946C27.7407 13.946 26.9008 13.685 26.3049 12.8561L26.0613 13.0312C26.7277 13.9582 27.6712 14.246 28.5154 14.246V13.946ZM26.275 13.0622L27.6744 11.9784L27.4907 11.7412L26.0913 12.825L26.275 13.0622ZM27.4615 11.9485C27.7836 12.3876 28.1125 12.5586 28.4743 12.5586V12.2586C28.2324 12.2586 27.9851 12.1551 27.7035 11.7711L27.4615 11.9485ZM28.4743 12.5586C28.8938 12.5586 29.2828 12.2494 29.2828 11.8323H28.9828C28.9828 12.0463 28.7682 12.2586 28.4743 12.2586V12.5586ZM29.2828 11.8323C29.2828 11.5751 29.2073 11.3655 29.0398 11.2136C28.8783 11.0672 28.6508 10.9925 28.3846 10.9566L28.3444 11.2539C28.5858 11.2865 28.7424 11.349 28.8383 11.4358C28.9279 11.5172 28.9828 11.6369 28.9828 11.8323H29.2828ZM40.6101 11.1052L40.5896 11.2538L40.59 11.2539L40.6101 11.1052ZM42.7366 8.01835L42.8235 8.14066L42.9428 8.05596L42.8611 7.9346L42.7366 8.01835ZM41.3647 8.99243L41.2483 9.08702L41.3369 9.19611L41.4515 9.11474L41.3647 8.99243ZM41.0354 9.44517L41.0438 9.2954L41.0427 9.29535L41.0354 9.44517ZM38.4287 12.9436L38.3369 12.825L38.2225 12.9136L38.3069 13.0312L38.4287 12.9436ZM39.8281 11.8598L39.9491 11.7711L39.858 11.6469L39.7363 11.7412L39.8281 11.8598ZM40.6306 10.9566C40.0615 10.8781 39.597 10.6507 39.276 10.317C38.956 9.98438 38.7708 9.5386 38.7708 9.00615H38.4708C38.4708 9.6124 38.6835 10.1338 39.0598 10.525C39.435 10.9149 39.9651 11.1677 40.5896 11.2538L40.6306 10.9566ZM38.7708 9.00615C38.7708 8.45003 39.0233 7.96663 39.3923 7.62008C39.763 7.27197 40.2419 7.0708 40.6787 7.0708V6.7708C40.1552 6.7708 39.6051 7.00866 39.1869 7.40139C38.7671 7.79569 38.4708 8.35496 38.4708 9.00615H38.7708ZM40.6787 7.0708C41.5192 7.0708 42.1591 7.42899 42.6122 8.10211L42.8611 7.9346C42.3538 7.1809 41.6217 6.7708 40.6787 6.7708V7.0708ZM42.6498 7.89604L41.2779 8.87012L41.4515 9.11474L42.8235 8.14066L42.6498 7.89604ZM41.4811 8.89784C41.2855 8.65715 41.0273 8.48572 40.7199 8.48572V8.78572C40.9064 8.78572 41.0871 8.88869 41.2483 9.08702L41.4811 8.89784ZM40.7199 8.48572C40.5609 8.48572 40.4194 8.53207 40.3158 8.62555C40.2111 8.72006 40.1583 8.85115 40.1583 8.99243H40.4583C40.4583 8.92791 40.4809 8.88065 40.5168 8.84826C40.5539 8.81484 40.6182 8.78572 40.7199 8.78572V8.48572ZM40.1583 8.99243C40.1583 9.13995 40.2196 9.29164 40.3706 9.40546C40.5155 9.5147 40.7313 9.58051 41.0281 9.59499L41.0427 9.29535C40.7771 9.28239 40.6293 9.22473 40.5512 9.1659C40.4793 9.11166 40.4583 9.05069 40.4583 8.99243H40.1583ZM41.027 9.59493C41.6071 9.62752 42.1159 9.83536 42.4786 10.1933C42.8399 10.5499 43.0668 11.0656 43.0668 11.7363H43.3668C43.3668 10.9939 43.1135 10.3984 42.6894 9.97978C42.2666 9.56259 41.6848 9.33141 41.0438 9.2954L41.027 9.59493ZM43.0668 11.7363C43.0668 13.0429 42.033 13.946 40.761 13.946V14.246C42.1781 14.246 43.3668 13.2285 43.3668 11.7363H43.0668ZM40.761 13.946C39.9863 13.946 39.1464 13.685 38.5505 12.8561L38.3069 13.0312C38.9733 13.9582 39.9169 14.246 40.761 14.246V13.946ZM38.5206 13.0622L39.92 11.9784L39.7363 11.7412L38.3369 12.825L38.5206 13.0622ZM39.7072 11.9485C40.0292 12.3876 40.3581 12.5586 40.7199 12.5586V12.2586C40.478 12.2586 40.2307 12.1551 39.9491 11.7711L39.7072 11.9485ZM40.7199 12.5586C41.1394 12.5586 41.5284 12.2494 41.5284 11.8323H41.2284C41.2284 12.0463 41.0138 12.2586 40.7199 12.2586V12.5586ZM41.5284 11.8323C41.5284 11.5751 41.4529 11.3655 41.2854 11.2136C41.124 11.0672 40.8964 10.9925 40.6302 10.9566L40.59 11.2539C40.8314 11.2865 40.988 11.349 41.0839 11.4358C41.1736 11.5172 41.2284 11.6369 41.2284 11.8323H41.5284ZM52.7597 7.07172H52.9097V6.92172H52.7597V7.07172ZM52.7597 14V14.15H52.9097V14H52.7597ZM51.0173 14H50.8673V14.15H51.0173V14ZM51.0173 7.07172V6.92172H50.8673V7.07172H51.0173ZM52.6097 7.07172V14H52.9097V7.07172H52.6097ZM52.7597 13.85H51.0173V14.15H52.7597V13.85ZM51.1673 14V7.07172H50.8673V14H51.1673ZM51.0173 7.22172H52.7597V6.92172H51.0173V7.22172ZM64.1702 13.946C62.3052 13.946 60.7668 12.4084 60.7668 10.529H60.4668C60.4668 12.5733 62.1388 14.246 64.1702 14.246V13.946ZM60.7668 10.529C60.7668 8.60731 62.3063 7.0708 64.1702 7.0708V6.7708C62.1377 6.7708 60.4668 8.44463 60.4668 10.529H60.7668ZM64.1702 7.0708C66.1044 7.0708 67.6421 8.60918 67.6421 10.529H67.9421C67.9421 8.44275 66.2694 6.7708 64.1702 6.7708V7.0708ZM67.6421 10.529C67.6421 12.4065 66.1056 13.946 64.1702 13.946V14.246C66.2682 14.246 67.9421 12.5752 67.9421 10.529H67.6421ZM64.1702 8.48572C63.1515 8.48572 62.2229 9.37894 62.2229 10.529H62.5229C62.5229 9.53883 63.3229 8.78572 64.1702 8.78572V8.48572ZM62.2229 10.529C62.2229 11.6083 63.1494 12.5586 64.1702 12.5586V12.2586C63.325 12.2586 62.5229 11.4527 62.5229 10.529H62.2229ZM64.1702 12.5586C65.279 12.5586 66.1037 11.6022 66.1037 10.529H65.8037C65.8037 11.4588 65.0918 12.2586 64.1702 12.2586V12.5586ZM66.1037 10.529C66.1037 9.38424 65.2625 8.48572 64.1702 8.48572V8.78572C65.0809 8.78572 65.8037 9.53354 65.8037 10.529H66.1037ZM80.3068 10.625L80.2138 10.7427L80.4568 10.9348V10.625H80.3068ZM80.3068 7.07172V6.92172H80.1568V7.07172H80.3068ZM82.0492 7.07172H82.1992V6.92172H82.0492V7.07172ZM82.0492 14.096L81.9566 14.214L82.1992 14.4044V14.096H82.0492ZM77.3983 10.4467L77.4909 10.3287L77.2483 10.1383V10.4467H77.3983ZM77.3983 14V14.15H77.5483V14H77.3983ZM75.656 14H75.506V14.15H75.656V14ZM75.656 6.94824L75.749 6.83057L75.506 6.63844V6.94824H75.656ZM80.4568 10.625V7.07172H80.1568V10.625H80.4568ZM80.3068 7.22172H82.0492V6.92172H80.3068V7.22172ZM81.8992 7.07172V14.096H82.1992V7.07172H81.8992ZM82.1418 13.978L77.4909 10.3287L77.3057 10.5647L81.9566 14.214L82.1418 13.978ZM77.2483 10.4467V14H77.5483V10.4467H77.2483ZM77.3983 13.85H75.656V14.15H77.3983V13.85ZM75.8059 14V6.94824H75.506V14H75.8059ZM75.5629 7.06591L80.2138 10.7427L80.3998 10.5074L75.749 6.83057L75.5629 7.06591ZM21.2419 31.3933L21.3259 31.269L21.1977 31.1824L21.1151 31.3132L21.2419 31.3933ZM22.7236 32.3948L22.8497 32.476L22.9291 32.3527L22.8076 32.2706L22.7236 32.3948ZM22.655 28.6357L22.7413 28.7584L22.8559 28.6779L22.7833 28.5581L22.655 28.6357ZM21.2693 29.6098L21.1482 29.6983L21.2351 29.8172L21.3556 29.7325L21.2693 29.6098ZM21.1579 31.5176L22.6396 32.5191L22.8076 32.2706L21.3259 31.269L21.1579 31.5176ZM22.5975 32.3136C21.9768 33.2776 20.9928 33.946 19.623 33.946V34.246C21.1069 34.246 22.1807 33.5151 22.8497 32.476L22.5975 32.3136ZM19.623 33.946C17.688 33.946 16.1648 32.3932 16.1648 30.5564H15.8648C15.8648 32.5611 17.5245 34.246 19.623 34.246V33.946ZM16.1648 30.5564C16.1648 28.6344 17.691 27.0708 19.623 27.0708V26.7708C17.5216 26.7708 15.8648 28.4724 15.8648 30.5564H16.1648ZM19.623 27.0708C20.858 27.0708 21.9216 27.7138 22.5267 28.7134L22.7833 28.5581C22.1262 27.4724 20.9673 26.7708 19.623 26.7708V27.0708ZM22.5687 28.513L21.1831 29.4871L21.3556 29.7325L22.7413 28.7584L22.5687 28.513ZM21.3904 29.5213C21.1227 29.1549 20.861 28.897 20.572 28.7319C20.2808 28.5654 19.9726 28.4994 19.623 28.4994V28.7994C19.9319 28.7994 20.1863 28.857 20.4232 28.9923C20.6625 29.129 20.8947 29.3513 21.1482 29.6983L21.3904 29.5213ZM19.623 28.4994C18.4175 28.4994 17.6346 29.4565 17.6346 30.5564H17.9346C17.9346 29.5985 18.6059 28.7994 19.623 28.7994V28.4994ZM17.6346 30.5564C17.6346 31.5626 18.4471 32.5586 19.623 32.5586V32.2586C18.6313 32.2586 17.9346 31.4161 17.9346 30.5564H17.6346ZM19.623 32.5586C20.5082 32.5586 21.0281 32.0127 21.3687 31.4734L21.1151 31.3132C20.7972 31.8166 20.3567 32.2586 19.623 32.2586V32.5586ZM33.6633 33.946C31.7984 33.946 30.26 32.4084 30.26 30.529H29.96C29.96 32.5733 31.6319 34.246 33.6633 34.246V33.946ZM30.26 30.529C30.26 28.6073 31.7995 27.0708 33.6633 27.0708V26.7708C31.6308 26.7708 29.96 28.4446 29.96 30.529H30.26ZM33.6633 27.0708C35.5976 27.0708 37.1352 28.6092 37.1352 30.529H37.4352C37.4352 28.4428 35.7625 26.7708 33.6633 26.7708V27.0708ZM37.1352 30.529C37.1352 32.4065 35.5987 33.946 33.6633 33.946V34.246C35.7614 34.246 37.4352 32.5752 37.4352 30.529H37.1352ZM33.6633 28.4857C32.6447 28.4857 31.7161 29.3789 31.7161 30.529H32.0161C32.0161 29.5388 32.8161 28.7857 33.6633 28.7857V28.4857ZM31.7161 30.529C31.7161 31.6083 32.6426 32.5586 33.6633 32.5586V32.2586C32.8182 32.2586 32.0161 31.4527 32.0161 30.529H31.7161ZM33.6633 32.5586C34.7721 32.5586 35.5968 31.6022 35.5968 30.529H35.2968C35.2968 31.4588 34.5849 32.2586 33.6633 32.2586V32.5586ZM35.5968 30.529C35.5968 29.3842 34.7556 28.4857 33.6633 28.4857V28.7857C34.574 28.7857 35.2968 29.5335 35.2968 30.529H35.5968ZM46.8915 27.0717H47.0415V26.9217H46.8915V27.0717ZM46.8915 34V34.15H47.0415V34H46.8915ZM45.1491 34H44.9991V34.15H45.1491V34ZM45.1491 27.0717V26.9217H44.9991V27.0717H45.1491ZM46.7415 27.0717V34H47.0415V27.0717H46.7415ZM46.8915 33.85H45.1491V34.15H46.8915V33.85ZM45.2991 34V27.0717H44.9991V34H45.2991ZM45.1491 27.2217H46.8915V26.9217H45.1491V27.2217ZM59.6876 30.625L59.5945 30.7427L59.8376 30.9348V30.625H59.6876ZM59.6876 27.0717V26.9217H59.5376V27.0717H59.6876ZM61.4299 27.0717H61.5799V26.9217H61.4299V27.0717ZM61.4299 34.096L61.3373 34.214L61.5799 34.4044V34.096H61.4299ZM56.779 30.4467L56.8716 30.3287L56.629 30.1383V30.4467H56.779ZM56.779 34V34.15H56.929V34H56.779ZM55.0367 34H54.8867V34.15H55.0367V34ZM55.0367 26.9482L55.1297 26.8306L54.8867 26.6384V26.9482H55.0367ZM59.8376 30.625V27.0717H59.5376V30.625H59.8376ZM59.6876 27.2217H61.4299V26.9217H59.6876V27.2217ZM61.2799 27.0717V34.096H61.5799V27.0717H61.2799ZM61.5225 33.978L56.8716 30.3287L56.6865 30.5647L61.3373 34.214L61.5225 33.978ZM56.629 30.4467V34H56.929V30.4467H56.629ZM56.779 33.85H55.0367V34.15H56.779V33.85ZM55.1867 34V26.9482H54.8867V34H55.1867ZM54.9437 27.0659L59.5945 30.7427L59.7806 30.5074L55.1297 26.8306L54.9437 27.0659ZM71.4117 31.1052L71.3912 31.2538L71.3916 31.2539L71.4117 31.1052ZM73.5382 28.0184L73.6251 28.1407L73.7444 28.056L73.6627 27.9346L73.5382 28.0184ZM72.1663 28.9924L72.0499 29.087L72.1385 29.1961L72.2531 29.1147L72.1663 28.9924ZM71.837 29.4452L71.8454 29.2954L71.8443 29.2953L71.837 29.4452ZM69.2303 32.9436L69.1385 32.825L69.0241 32.9136L69.1085 33.0312L69.2303 32.9436ZM70.6297 31.8598L70.7507 31.7711L70.6596 31.6469L70.5379 31.7412L70.6297 31.8598ZM71.4322 30.9566C70.8631 30.8781 70.3986 30.6507 70.0776 30.317C69.7576 29.9844 69.5724 29.5386 69.5724 29.0061H69.2724C69.2724 29.6124 69.4851 30.1338 69.8614 30.525C70.2366 30.9149 70.7668 31.1677 71.3912 31.2538L71.4322 30.9566ZM69.5724 29.0061C69.5724 28.45 69.8249 27.9666 70.1939 27.6201C70.5646 27.272 71.0435 27.0708 71.4803 27.0708V26.7708C70.9568 26.7708 70.4067 27.0087 69.9885 27.4014C69.5687 27.7957 69.2724 28.355 69.2724 29.0061H69.5724ZM71.4803 27.0708C72.3208 27.0708 72.9607 27.429 73.4138 28.1021L73.6627 27.9346C73.1554 27.1809 72.4233 26.7708 71.4803 26.7708V27.0708ZM73.4514 27.896L72.0795 28.8701L72.2531 29.1147L73.6251 28.1407L73.4514 27.896ZM72.2827 28.8978C72.0872 28.6572 71.8289 28.4857 71.5215 28.4857V28.7857C71.708 28.7857 71.8887 28.8887 72.0499 29.087L72.2827 28.8978ZM71.5215 28.4857C71.3625 28.4857 71.221 28.5321 71.1174 28.6255C71.0127 28.7201 70.9599 28.8512 70.9599 28.9924H71.2599C71.2599 28.9279 71.2825 28.8807 71.3184 28.8483C71.3555 28.8148 71.4198 28.7857 71.5215 28.7857V28.4857ZM70.9599 28.9924C70.9599 29.14 71.0212 29.2916 71.1722 29.4055C71.3171 29.5147 71.5329 29.5805 71.8297 29.595L71.8443 29.2953C71.5787 29.2824 71.4309 29.2247 71.3528 29.1659C71.2809 29.1117 71.2599 29.0507 71.2599 28.9924H70.9599ZM71.8286 29.5949C72.4087 29.6275 72.9175 29.8354 73.2802 30.1933C73.6415 30.5499 73.8684 31.0656 73.8684 31.7363H74.1684C74.1684 30.9939 73.9151 30.3984 73.491 29.9798C73.0682 29.5626 72.4864 29.3314 71.8454 29.2954L71.8286 29.5949ZM73.8684 31.7363C73.8684 33.0429 72.8346 33.946 71.5626 33.946V34.246C72.9797 34.246 74.1684 33.2285 74.1684 31.7363H73.8684ZM71.5626 33.946C70.7879 33.946 69.948 33.685 69.3521 32.8561L69.1085 33.0312C69.7749 33.9582 70.7185 34.246 71.5626 34.246V33.946ZM69.3222 33.0622L70.7216 31.9784L70.5379 31.7412L69.1385 32.825L69.3222 33.0622ZM70.5088 31.9485C70.8308 32.3876 71.1597 32.5586 71.5215 32.5586V32.2586C71.2796 32.2586 71.0323 32.1551 70.7507 31.7711L70.5088 31.9485ZM71.5215 32.5586C71.941 32.5586 72.33 32.2494 72.33 31.8323H72.03C72.03 32.0463 71.8154 32.2586 71.5215 32.2586V32.5586ZM72.33 31.8323C72.33 31.5751 72.2545 31.3655 72.087 31.2136C71.9256 31.0672 71.698 30.9925 71.4318 30.9566L71.3916 31.2539C71.633 31.2865 71.7897 31.349 71.8855 31.4358C71.9752 31.5172 72.03 31.6369 72.03 31.8323H72.33Z" fill="#FEF8ED" mask="url(#path-1-outside-1_412_967)"/>
<rect x="1" y="20.3828" width="81.1403" height="0.783964" fill="url(#paint0_linear_412_967)"/>
<defs>
<linearGradient id="paint0_linear_412_967" x1="1" y1="20.7748" x2="82.1403" y2="20.7748" gradientUnits="userSpaceOnUse">
<stop stop-color="#04EA95"/>
<stop offset="0.240273" stop-color="#E4AC3D"/>
<stop offset="0.475273" stop-color="#FD6C18"/>
<stop offset="0.745273" stop-color="#F94A63"/>
<stop offset="1" stop-color="#6A42AA"/>
</linearGradient>
</defs>
</svg>
