<svg width="12" height="12" viewBox="0 0 12 12" fill="none" xmlns="http://www.w3.org/2000/svg">
<circle cx="5.7124" cy="6.40967" r="5.18574" stroke="#FFFDFD" stroke-width="0.74082"/>
<path d="M4.8554 9.41108C5.01443 9.41108 5.12802 9.37984 5.19617 9.31737C5.26433 9.25489 5.30693 9.16686 5.32396 9.05326C5.34668 8.93399 5.35804 8.80052 5.35804 8.65285V7.23862C5.35804 7.13639 5.36088 7.01996 5.36656 6.88933C5.37224 6.75302 5.38076 6.62239 5.39212 6.49743C5.30125 6.50311 5.19333 6.50879 5.06838 6.51447C4.94911 6.51447 4.85824 6.51731 4.79576 6.52299V5.87552C5.05702 5.87552 5.27853 5.86132 5.46028 5.83292C5.64202 5.80452 5.78401 5.77044 5.88625 5.73068C5.99416 5.69093 6.068 5.65401 6.10775 5.61993H6.5678V8.59321C6.5678 8.67273 6.56496 8.78632 6.55928 8.93399C6.5536 9.07598 6.54508 9.21229 6.53372 9.34293C6.6246 9.33157 6.72399 9.32589 6.8319 9.32589C6.9455 9.32021 7.03069 9.31737 7.08749 9.31737V9.96484H4.8554V9.41108ZM5.92032 4.9469C5.72722 4.9469 5.56819 4.87874 5.44324 4.74243C5.31828 4.60612 5.25581 4.44141 5.25581 4.2483C5.25581 4.0552 5.32112 3.89049 5.45176 3.75418C5.58239 3.61787 5.73574 3.54971 5.91181 3.54971C6.09355 3.54971 6.24406 3.61787 6.36334 3.75418C6.48829 3.89049 6.55076 4.0552 6.55076 4.2483C6.55076 4.44141 6.49397 4.60612 6.38037 4.74243C6.26678 4.87874 6.11343 4.9469 5.92032 4.9469Z" fill="white"/>
</svg>
